<svg width="128" height="128" viewBox="0 0 128 128" xmlns="http://www.w3.org/2000/svg">
  <!-- Background Circle (Dark Navy) -->
  <circle cx="64" cy="64" r="64" fill="#0f172a"/>

  <!-- Edges (Amber) - forming the interconnected network within the sage leaf silhouette -->
  <g stroke="#f59e0b" stroke-width="1.5" stroke-linecap="round">
    <!-- Main spine connections and direct neighbors -->
    <line x1="64" y1="100" x2="64" y2="85"/>
    <line x1="64" y1="100" x2="50" y2="80"/>
    <line x1="64" y1="100" x2="78" y2="80"/>

    <line x1="64" y1="85" x2="64" y2="70"/>
    <line x1="64" y1="85" x2="50" y2="80"/>
    <line x1="64" y1="85" x2="78" y2="80"/>
    <line x1="64" y1="85" x2="60" y2="75"/>
    <line x1="64" y1="85" x2="68" y2="75"/>

    <line x1="64" y1="70" x2="64" y2="55"/>
    <line x1="64" y1="70" x2="45" y2="65"/>
    <line x1="64" y1="70" x2="83" y2="65"/>
    <line x1="64" y1="70" x2="60" y2="75"/>
    <line x1="64" y1="70" x2="68" y2="75"/>
    <line x1="64" y1="70" x2="58" y2="60"/>
    <line x1="64" y1="70" x2="70" y2="60"/>

    <line x1="64" y1="55" x2="64" y2="40"/>
    <line x1="64" y1="55" x2="45" y2="65"/>
    <line x1="64" y1="55" x2="83" y2="65"/>
    <line x1="64" y1="55" x2="48" y2="50"/>
    <line x1="64" y1="55" x2="80" y2="50"/>
    <line x1="64" y1="55" x2="58" y2="60"/>
    <line x1="64" y1="55" x2="70" y2="60"/>
    <line x1="64" y1="55" x2="60" y2="45"/>
    <line x1="64" y1="55" x2="68" y2="45"/>

    <line x1="64" y1="40" x2="64" y2="25"/>
    <line x1="64" y1="40" x2="48" y2="50"/>
    <line x1="64" y1="40" x2="80" y2="50"/>
    <line x1="64" y1="40" x2="55" y2="35"/>
    <line x1="64" y1="40" x2="73" y2="35"/>
    <line x1="64" y1="40" x2="60" y2="45"/>
    <line x1="64" y1="40" x2="68" y2="45"/>

    <line x1="64" y1="25" x2="55" y2="35"/>
    <line x1="64" y1="25" x2="73" y2="35"/>

    <!-- Lateral connections -->
    <line x1="50" y1="80" x2="45" y2="65"/>
    <line x1="78" y1="80" x2="83" y2="65"/>
    <line x1="45" y1="65" x2="48" y2="50"/>
    <line x1="83" y1="65" x2="80" y2="50"/>
    <line x1="48" y1="50" x2="55" y2="35"/>
    <line x1="80" y1="50" x2="73" y2="35"/>

    <!-- Inner cluster connections -->
    <line x1="60" y1="75" x2="50" y2="80"/>
    <line x1="68" y1="75" x2="78" y2="80"/>
    <line x1="60" y1="75" x2="58" y2="60"/>
    <line x1="68" y1="75" x2="70" y2="60"/>
    <line x1="60" y1="75" x2="68" y2="75"/>

    <line x1="58" y1="60" x2="45" y2="65"/>
    <line x1="70" y1="60" x2="83" y2="65"/>
    <line x1="58" y1="60" x2="60" y2="45"/>
    <line x1="70" y1="60" x2="68" y2="45"/>
    <line x1="58" y1="60" x2="70" y2="60"/>

    <line x1="60" y1="45" x2="48" y2="50"/>
    <line x1="68" y1="45" x2="80" y2="50"/>
    <line x1="60" y1="45" x2="55" y2="35"/>
    <line x1="68" y1="45" x2="73" y2="35"/>
    <line x1="60" y1="45" x2="68" y2="45"/>
  </g>

  <!-- Nodes (Teal Cyan) - rendered on top of edges for prominence -->
  <g fill="#06b6d4">
    <circle cx="64" cy="100" r="3"/>
    <circle cx="64" cy="85" r="3"/>
    <circle cx="64" cy="70" r="3"/>
    <circle cx="64" cy="55" r="3"/>
    <circle cx="64" cy="40" r="3"/>
    <circle cx="64" cy="25" r="3"/>

    <circle cx="50" cy="80" r="3"/>
    <circle cx="78" cy="80" r="3"/>

    <circle cx="45" cy="65" r="3"/>
    <circle cx="83" cy="65" r="3"/>

    <circle cx="48" cy="50" r="3"/>
    <circle cx="80" cy="50" r="3"/>

    <circle cx="55" cy="35" r="3"/>
    <circle cx="73" cy="35" r="3"/>
    
    <circle cx="60" cy="75" r="3"/>
    <circle cx="68" cy="75" r="3"/>

    <circle cx="58" cy="60" r="3"/>
    <circle cx="70" cy="60" r="3"/>

    <circle cx="60" cy="45" r="3"/>
    <circle cx="68" cy="45" r="3"/>
  </g>
</svg>